<svg xmlns="http://www.w3.org/2000/svg" width="20" height="20" viewBox="0 0 192 192" ><rect x="0" y="0" width="192" height="192" style="fill:none;"/><path fill="hsl(45 99.2% 50.4%)" d="M168.958,92.05l6.539,-5.442c8.589,-7.149 4.016,-21.361 -7.02,-22.077c0,0 -8.661,-0.562 -8.661,-0.562c-3.304,-0.214 -6.161,2.294 -6.376,5.599c-0.214,3.304 2.295,6.161 5.599,6.376l8.661,0.562c0.423,0.027 0.449,0.605 0.12,0.879c-0,0 -6.538,5.442 -6.538,5.442c-2.545,2.118 -2.892,5.905 -0.773,8.45c2.118,2.545 5.904,2.892 8.449,0.773Z"/><path fill="hsl(45 99.2% 50.4%)" d="M143.91,125.185l-2.489,-9.792c-0.052,-0.201 0.01,-0.414 0.16,-0.555c0.018,-0.016 7.519,-6.259 7.519,-6.259c2.545,-2.119 2.892,-5.905 0.773,-8.45c-2.118,-2.546 -5.904,-2.892 -8.45,-0.774l-7.552,6.287c-3.685,3.106 -5.272,8.07 -4.073,12.738c-0.003,-0.016 2.482,9.761 2.482,9.761c0.816,3.21 4.084,5.153 7.293,4.337c3.21,-0.816 5.153,-4.084 4.337,-7.293Z"/><path fill="hsl(45 99.2% 50.4%)" d="M87.044,152.775l8.814,-4.939c0.181,-0.102 0.402,-0.097 0.577,0.011c0.021,0.013 7.993,5.643 7.993,5.643c2.705,1.91 6.452,1.265 8.362,-1.44c1.91,-2.705 1.265,-6.452 -1.44,-8.362l-8.027,-5.669c-3.954,-2.755 -9.16,-3.003 -13.358,-0.636c0.014,-0.008 -8.787,4.923 -8.787,4.923c-2.889,1.619 -3.92,5.279 -2.301,8.167c1.619,2.889 5.278,3.921 8.167,2.302Z"/><path fill="hsl(45 99.2% 50.4%)" d="M110.787,28.211l-3.144,-7.904c-4.131,-10.384 -19.06,-10.446 -23.166,-0.177c0,0 -3.221,8.059 -3.221,8.059c-1.23,3.075 0.269,6.569 3.344,7.798c3.075,1.23 6.569,-0.269 7.798,-3.344l3.222,-8.058c0.157,-0.394 0.715,-0.239 0.873,0.158c-0,0 3.144,7.904 3.144,7.904c1.224,3.077 4.716,4.581 7.793,3.357c3.077,-1.224 4.581,-4.716 3.357,-7.793Z"/><path fill="hsl(45 99.2% 50.4%)" d="M134.514,62.305l-10.081,-0.672c-0.207,-0.013 -0.39,-0.138 -0.477,-0.324c-0.01,-0.023 -3.618,-9.091 -3.618,-9.091c-1.224,-3.077 -4.716,-4.581 -7.793,-3.357c-3.077,1.224 -4.581,4.716 -3.357,7.793l3.632,9.131c1.81,4.467 6.036,7.516 10.846,7.824c-0.016,-0.002 10.05,0.67 10.05,0.67c3.304,0.22 6.166,-2.284 6.386,-5.588c0.22,-3.304 -2.284,-6.166 -5.588,-6.386Z"/><path fill="hsl(45 99.2% 50.4%)" d="M58.214,74.279l10.066,-0.672c4.794,-0.306 9.02,-3.355 10.83,-7.822l3.633,-9.131c1.224,-3.077 -0.281,-6.569 -3.358,-7.793c-3.077,-1.224 -6.568,0.28 -7.793,3.357l-3.607,9.068c-0.083,0.199 -0.273,0.333 -0.487,0.347l-10.082,0.672c-3.304,0.22 -5.808,3.082 -5.587,6.386c0.22,3.304 3.081,5.808 6.385,5.588Z"/><path fill="hsl(45 99.2% 50.4%)" d="M126.555,167.414l7.369,4.669c9.401,5.957 21.219,-2.709 18.43,-13.683c-0,-0 -2.081,-8.184 -2.081,-8.184c-0.816,-3.21 -4.084,-5.153 -7.293,-4.337c-3.21,0.816 -5.153,4.084 -4.337,7.293l2.08,8.184c0.086,0.335 -0.09,0.772 -0.377,0.59c0,0 -7.369,-4.668 -7.369,-4.668c-2.797,-1.773 -6.507,-0.94 -8.28,1.857c-1.772,2.797 -0.94,6.507 1.858,8.279Z"/><path fill="hsl(45 99.2% 50.4%)" d="M30.718,82.827l-6.538,-5.442c-0.329,-0.274 -0.303,-0.852 0.12,-0.879c0,-0 8.661,-0.562 8.661,-0.562c3.304,-0.215 5.813,-3.072 5.599,-6.376c-0.215,-3.305 -3.072,-5.813 -6.376,-5.599l-8.661,0.562c-11.036,0.716 -15.609,14.928 -7.02,22.077c0,0 6.538,5.442 6.538,5.442c2.546,2.119 6.332,1.772 8.45,-0.773c2.119,-2.545 1.772,-6.332 -0.773,-8.45Z"/><path fill="hsl(45 99.2% 50.4%)" d="M59.72,128.141l2.485,-9.777c1.196,-4.652 -0.391,-9.616 -4.076,-12.722l-7.552,-6.287c-2.546,-2.118 -6.332,-1.772 -8.45,0.774c-2.119,2.545 -1.772,6.331 0.773,8.45l7.501,6.243c0.162,0.141 0.232,0.362 0.178,0.571l-2.489,9.792c-0.816,3.209 1.127,6.477 4.337,7.293c3.209,0.816 6.477,-1.127 7.293,-4.337Z"/><path fill="hsl(45 99.2% 50.4%)" d="M59.023,157.278l-7.369,4.668c-0.287,0.182 -0.463,-0.255 -0.378,-0.59c0,0 2.081,-8.184 2.081,-8.184c0.816,-3.209 -1.127,-6.477 -4.337,-7.293c-3.209,-0.816 -6.477,1.127 -7.293,4.337l-2.081,8.184c-2.789,10.974 9.029,19.64 18.43,13.683c0,0 7.369,-4.669 7.369,-4.669c2.798,-1.772 3.63,-5.482 1.858,-8.279c-1.773,-2.797 -5.483,-3.63 -8.28,-1.857Z"/></svg>